<svg width="16" height="16" viewBox="0 0 16 16" fill="none" xmlns="http://www.w3.org/2000/svg">
<g clip-path="url(#clip0_5317_1366)">
<path d="M0.979492 15.1554H15.1566M1.99206 10.0925V15.1554M5.02864 10.0925V15.1554M8.06863 10.0925V15.1554M11.1052 10.0925V15.1554M14.1441 10.0925V15.1554M15.1566 10.0925H0.979492L8.06749 6.04224L15.1566 10.0925Z" stroke="#727272" stroke-linecap="round" stroke-linejoin="round"/>
<path d="M4.01758 8.33827V6.54856C4.01758 5.47435 4.4443 4.44415 5.20388 3.68457C5.96346 2.925 6.99366 2.49827 8.06786 2.49827C9.14207 2.49827 10.1723 2.925 10.9318 3.68457C11.6914 4.44415 12.1181 5.47435 12.1181 6.54856V8.33827M8.06901 2.49713V0.978271" stroke="#727272" stroke-linecap="round" stroke-linejoin="round"/>
</g>
<defs>
<clipPath id="clip0_5317_1366">
<rect width="16" height="16" fill="white"/>
</clipPath>
</defs>
</svg>
