<svg width="17" height="17" viewBox="0 0 17 17" fill="none" xmlns="http://www.w3.org/2000/svg">
<path d="M9.91699 13.4583C12.5881 13.4583 13.924 13.4583 14.7535 12.6282C15.583 11.798 15.5837 10.4628 15.5837 7.79167C15.5837 5.12054 15.5837 3.78462 14.7535 2.95517C13.9233 2.12571 12.5881 2.125 9.91699 2.125H7.08366C4.41253 2.125 3.07662 2.125 2.24716 2.95517C1.4177 3.78533 1.41699 5.12054 1.41699 7.79167C1.41699 10.4628 1.41699 11.7987 2.24716 12.6282C2.7097 13.0914 3.32949 13.2961 4.25033 13.3861" stroke="#727272" stroke-linecap="round" stroke-linejoin="round"/>
<path d="M9.91672 13.4584C9.04122 13.4584 8.07647 13.8125 7.19601 14.2694C5.78076 15.004 5.07313 15.3716 4.72463 15.1371C4.37613 14.9027 4.44201 14.1773 4.57447 12.726L4.60422 12.3959" stroke="#727272" stroke-linecap="round"/>
<path d="M3.89648 9.5625L4.60482 8.14583M4.60482 8.14583L5.38823 6.57971C5.44712 6.46221 5.53754 6.36341 5.64938 6.29437C5.76121 6.22532 5.89005 6.18876 6.02148 6.18876C6.15292 6.18876 6.28175 6.22532 6.39359 6.29437C6.50542 6.36341 6.59584 6.46221 6.65473 6.57971L7.43815 8.14583M4.60482 8.14583H7.43815M7.43815 8.14583L8.14648 9.5625M8.85482 5.3125H10.2587V6.375C10.2587 6.72917 9.9074 7.4375 9.20544 7.4375M12.0133 5.3125V6.72917M12.0133 6.72917V9.5625M12.0133 6.72917H13.1048" stroke="#727272" stroke-linecap="round" stroke-linejoin="round"/>
</svg>
