<svg width="13" height="13" viewBox="0 0 13 13" fill="none" xmlns="http://www.w3.org/2000/svg">
<g clip-path="url(#clip0_5317_1353)">
<path d="M8.66699 8.66671C8.66699 8.06817 6.96941 7.58337 4.87533 7.58337M8.66699 8.66671C8.66699 9.26525 6.96941 9.75004 4.87533 9.75004C2.78124 9.75004 1.08366 9.26525 1.08366 8.66671M8.66699 8.66671V11.3409C8.66699 11.9579 6.96941 12.4584 4.87533 12.4584C2.78124 12.4584 1.08366 11.9584 1.08366 11.3409V8.66671M8.66699 8.66671C10.7383 8.66671 12.4587 8.13208 12.4587 7.58337V2.16671M4.87533 7.58337C2.78124 7.58337 1.08366 8.06817 1.08366 8.66671M4.87533 7.58337C2.48224 7.58337 0.541992 7.04875 0.541992 6.50004V3.79171M4.87533 2.70837C2.48224 2.70837 0.541992 3.19317 0.541992 3.79171M0.541992 3.79171C0.541992 4.39025 2.48224 4.87504 4.87533 4.87504C4.87533 5.42375 6.63737 5.95837 8.7087 5.95837C10.78 5.95837 12.4587 5.42375 12.4587 4.87504M12.4587 2.16671C12.4587 1.56817 10.7795 1.08337 8.7087 1.08337C6.63791 1.08337 4.95874 1.56817 4.95874 2.16671M12.4587 2.16671C12.4587 2.76525 10.7795 3.25004 8.7087 3.25004C6.63791 3.25004 4.95874 2.76525 4.95874 2.16671M4.95874 2.16671V7.67329" stroke="#727272"/>
</g>
<defs>
<clipPath id="clip0_5317_1353">
<rect width="13" height="13" fill="white"/>
</clipPath>
</defs>
</svg>
